<mxfile host="app.diagrams.net" modified="2023-03-31T09:43:08.987Z" agent="Mozilla/5.0 (Windows NT 10.0; Win64; x64) AppleWebKit/537.36 (KHTML, like Gecko) Chrome/111.0.0.0 Safari/537.36" etag="ZerYxcbIv7V5tMmcIi1o" version="21.1.2" type="device">
  <diagram name="Page-1" id="9dnfms68kQYcWv1hn0Jb">
    <mxGraphModel dx="413" dy="1361" grid="1" gridSize="10" guides="1" tooltips="1" connect="1" arrows="1" fold="1" page="1" pageScale="1" pageWidth="827" pageHeight="1169" math="0" shadow="0">
      <root>
        <mxCell id="0" />
        <mxCell id="1" parent="0" />
        <mxCell id="jhRFJCUqM1kgl0zMGDGb-3" value="" style="rounded=0;orthogonalLoop=1;jettySize=auto;html=1;orthogonal=1;" edge="1" parent="1" source="jhRFJCUqM1kgl0zMGDGb-1" target="jhRFJCUqM1kgl0zMGDGb-2">
          <mxGeometry relative="1" as="geometry" />
        </mxCell>
        <mxCell id="jhRFJCUqM1kgl0zMGDGb-5" value="Underscore" style="edgeLabel;html=1;align=center;verticalAlign=middle;resizable=0;points=[];" vertex="1" connectable="0" parent="jhRFJCUqM1kgl0zMGDGb-3">
          <mxGeometry x="0.2388" relative="1" as="geometry">
            <mxPoint as="offset" />
          </mxGeometry>
        </mxCell>
        <mxCell id="jhRFJCUqM1kgl0zMGDGb-15" value="" style="rounded=0;orthogonalLoop=1;jettySize=auto;html=1;orthogonal=1;" edge="1" parent="1" source="jhRFJCUqM1kgl0zMGDGb-1" target="jhRFJCUqM1kgl0zMGDGb-14">
          <mxGeometry relative="1" as="geometry" />
        </mxCell>
        <mxCell id="jhRFJCUqM1kgl0zMGDGb-32" value="digit" style="edgeLabel;html=1;align=center;verticalAlign=middle;resizable=0;points=[];" vertex="1" connectable="0" parent="jhRFJCUqM1kgl0zMGDGb-15">
          <mxGeometry x="-0.1604" y="2" relative="1" as="geometry">
            <mxPoint as="offset" />
          </mxGeometry>
        </mxCell>
        <mxCell id="jhRFJCUqM1kgl0zMGDGb-33" style="rounded=0;orthogonalLoop=1;jettySize=auto;html=1;orthogonal=1;" edge="1" parent="1" source="jhRFJCUqM1kgl0zMGDGb-1" target="jhRFJCUqM1kgl0zMGDGb-34">
          <mxGeometry relative="1" as="geometry">
            <mxPoint x="320" y="360" as="targetPoint" />
          </mxGeometry>
        </mxCell>
        <mxCell id="jhRFJCUqM1kgl0zMGDGb-35" value="pound" style="edgeLabel;html=1;align=center;verticalAlign=middle;resizable=0;points=[];" vertex="1" connectable="0" parent="jhRFJCUqM1kgl0zMGDGb-33">
          <mxGeometry x="-0.2035" relative="1" as="geometry">
            <mxPoint as="offset" />
          </mxGeometry>
        </mxCell>
        <mxCell id="jhRFJCUqM1kgl0zMGDGb-60" value="" style="rounded=0;orthogonalLoop=1;jettySize=auto;html=1;orthogonal=1;" edge="1" parent="1" source="jhRFJCUqM1kgl0zMGDGb-1" target="jhRFJCUqM1kgl0zMGDGb-59">
          <mxGeometry relative="1" as="geometry" />
        </mxCell>
        <mxCell id="jhRFJCUqM1kgl0zMGDGb-61" value="AtoF, GtoZ" style="edgeLabel;html=1;align=center;verticalAlign=middle;resizable=0;points=[];" vertex="1" connectable="0" parent="jhRFJCUqM1kgl0zMGDGb-60">
          <mxGeometry x="0.3038" y="-1" relative="1" as="geometry">
            <mxPoint y="17" as="offset" />
          </mxGeometry>
        </mxCell>
        <mxCell id="jhRFJCUqM1kgl0zMGDGb-65" value="" style="rounded=0;orthogonalLoop=1;jettySize=auto;html=1;orthogonal=1;" edge="1" parent="1" source="jhRFJCUqM1kgl0zMGDGb-1" target="jhRFJCUqM1kgl0zMGDGb-64">
          <mxGeometry relative="1" as="geometry" />
        </mxCell>
        <mxCell id="jhRFJCUqM1kgl0zMGDGb-66" value="Asterisk" style="edgeLabel;html=1;align=center;verticalAlign=middle;resizable=0;points=[];" vertex="1" connectable="0" parent="jhRFJCUqM1kgl0zMGDGb-65">
          <mxGeometry x="0.3308" relative="1" as="geometry">
            <mxPoint as="offset" />
          </mxGeometry>
        </mxCell>
        <mxCell id="jhRFJCUqM1kgl0zMGDGb-68" value="" style="rounded=0;orthogonalLoop=1;jettySize=auto;html=1;orthogonal=1;" edge="1" parent="1" source="jhRFJCUqM1kgl0zMGDGb-1" target="jhRFJCUqM1kgl0zMGDGb-67">
          <mxGeometry relative="1" as="geometry" />
        </mxCell>
        <mxCell id="jhRFJCUqM1kgl0zMGDGb-69" value="Slash" style="edgeLabel;html=1;align=center;verticalAlign=middle;resizable=0;points=[];" vertex="1" connectable="0" parent="jhRFJCUqM1kgl0zMGDGb-68">
          <mxGeometry x="0.585" y="2" relative="1" as="geometry">
            <mxPoint as="offset" />
          </mxGeometry>
        </mxCell>
        <mxCell id="jhRFJCUqM1kgl0zMGDGb-71" value="" style="rounded=0;orthogonalLoop=1;jettySize=auto;html=1;orthogonal=1;" edge="1" parent="1" source="jhRFJCUqM1kgl0zMGDGb-1" target="jhRFJCUqM1kgl0zMGDGb-70">
          <mxGeometry relative="1" as="geometry" />
        </mxCell>
        <mxCell id="jhRFJCUqM1kgl0zMGDGb-74" value="Plus" style="edgeLabel;html=1;align=center;verticalAlign=middle;resizable=0;points=[];" vertex="1" connectable="0" parent="jhRFJCUqM1kgl0zMGDGb-71">
          <mxGeometry x="0.4391" relative="1" as="geometry">
            <mxPoint as="offset" />
          </mxGeometry>
        </mxCell>
        <mxCell id="jhRFJCUqM1kgl0zMGDGb-73" value="" style="rounded=0;orthogonalLoop=1;jettySize=auto;html=1;orthogonal=1;" edge="1" parent="1" source="jhRFJCUqM1kgl0zMGDGb-1" target="jhRFJCUqM1kgl0zMGDGb-72">
          <mxGeometry relative="1" as="geometry" />
        </mxCell>
        <mxCell id="jhRFJCUqM1kgl0zMGDGb-75" value="Minus" style="edgeLabel;html=1;align=center;verticalAlign=middle;resizable=0;points=[];" vertex="1" connectable="0" parent="jhRFJCUqM1kgl0zMGDGb-73">
          <mxGeometry x="0.467" relative="1" as="geometry">
            <mxPoint as="offset" />
          </mxGeometry>
        </mxCell>
        <mxCell id="jhRFJCUqM1kgl0zMGDGb-77" value="" style="rounded=0;orthogonalLoop=1;jettySize=auto;html=1;" edge="1" parent="1" source="jhRFJCUqM1kgl0zMGDGb-1" target="jhRFJCUqM1kgl0zMGDGb-76">
          <mxGeometry relative="1" as="geometry" />
        </mxCell>
        <mxCell id="jhRFJCUqM1kgl0zMGDGb-78" value="GT" style="edgeLabel;html=1;align=center;verticalAlign=middle;resizable=0;points=[];" vertex="1" connectable="0" parent="jhRFJCUqM1kgl0zMGDGb-77">
          <mxGeometry x="0.2985" y="-5" relative="1" as="geometry">
            <mxPoint y="-1" as="offset" />
          </mxGeometry>
        </mxCell>
        <mxCell id="jhRFJCUqM1kgl0zMGDGb-80" value="" style="rounded=0;orthogonalLoop=1;jettySize=auto;html=1;" edge="1" parent="1" source="jhRFJCUqM1kgl0zMGDGb-1" target="jhRFJCUqM1kgl0zMGDGb-79">
          <mxGeometry relative="1" as="geometry" />
        </mxCell>
        <mxCell id="jhRFJCUqM1kgl0zMGDGb-81" value="LT" style="edgeLabel;html=1;align=center;verticalAlign=middle;resizable=0;points=[];" vertex="1" connectable="0" parent="jhRFJCUqM1kgl0zMGDGb-80">
          <mxGeometry x="0.4142" y="-2" relative="1" as="geometry">
            <mxPoint y="-1" as="offset" />
          </mxGeometry>
        </mxCell>
        <mxCell id="jhRFJCUqM1kgl0zMGDGb-83" style="rounded=0;orthogonalLoop=1;jettySize=auto;html=1;" edge="1" parent="1" source="jhRFJCUqM1kgl0zMGDGb-1" target="jhRFJCUqM1kgl0zMGDGb-82">
          <mxGeometry relative="1" as="geometry" />
        </mxCell>
        <mxCell id="jhRFJCUqM1kgl0zMGDGb-85" value="Equals" style="edgeLabel;html=1;align=center;verticalAlign=middle;resizable=0;points=[];" vertex="1" connectable="0" parent="jhRFJCUqM1kgl0zMGDGb-83">
          <mxGeometry x="0.1765" y="3" relative="1" as="geometry">
            <mxPoint as="offset" />
          </mxGeometry>
        </mxCell>
        <mxCell id="jhRFJCUqM1kgl0zMGDGb-90" style="rounded=0;orthogonalLoop=1;jettySize=auto;html=1;" edge="1" parent="1" source="jhRFJCUqM1kgl0zMGDGb-1" target="jhRFJCUqM1kgl0zMGDGb-89">
          <mxGeometry relative="1" as="geometry">
            <mxPoint x="20" y="600" as="sourcePoint" />
          </mxGeometry>
        </mxCell>
        <mxCell id="jhRFJCUqM1kgl0zMGDGb-92" value="&lt;div&gt;Exclamation&lt;/div&gt;" style="edgeLabel;html=1;align=center;verticalAlign=middle;resizable=0;points=[];" vertex="1" connectable="0" parent="jhRFJCUqM1kgl0zMGDGb-90">
          <mxGeometry x="0.71" y="-3" relative="1" as="geometry">
            <mxPoint as="offset" />
          </mxGeometry>
        </mxCell>
        <mxCell id="jhRFJCUqM1kgl0zMGDGb-1" value="start" style="ellipse;whiteSpace=wrap;html=1;aspect=fixed;" vertex="1" parent="1">
          <mxGeometry y="385" width="80" height="80" as="geometry" />
        </mxCell>
        <mxCell id="jhRFJCUqM1kgl0zMGDGb-7" value="" style="edgeStyle=orthogonalEdgeStyle;rounded=0;orthogonalLoop=1;jettySize=auto;html=1;noEdgeStyle=1;orthogonal=1;" edge="1" parent="1" source="jhRFJCUqM1kgl0zMGDGb-2" target="jhRFJCUqM1kgl0zMGDGb-6">
          <mxGeometry relative="1" as="geometry">
            <Array as="points">
              <mxPoint x="317.33" y="-161.08" />
              <mxPoint x="393.33" y="-160.00578125" />
            </Array>
          </mxGeometry>
        </mxCell>
        <mxCell id="jhRFJCUqM1kgl0zMGDGb-8" value="Underscore" style="edgeLabel;html=1;align=center;verticalAlign=middle;resizable=0;points=[];" vertex="1" connectable="0" parent="jhRFJCUqM1kgl0zMGDGb-7">
          <mxGeometry x="-0.2444" y="1" relative="1" as="geometry">
            <mxPoint as="offset" />
          </mxGeometry>
        </mxCell>
        <mxCell id="jhRFJCUqM1kgl0zMGDGb-2" value="under1" style="ellipse;whiteSpace=wrap;html=1;aspect=fixed;" vertex="1" parent="1">
          <mxGeometry x="210" y="-200.01000000000002" width="80" height="80" as="geometry" />
        </mxCell>
        <mxCell id="jhRFJCUqM1kgl0zMGDGb-10" value="" style="rounded=0;orthogonalLoop=1;jettySize=auto;html=1;noEdgeStyle=1;orthogonal=1;" edge="1" parent="1" source="jhRFJCUqM1kgl0zMGDGb-6" target="jhRFJCUqM1kgl0zMGDGb-9">
          <mxGeometry relative="1" as="geometry">
            <Array as="points">
              <mxPoint x="497.33" y="-160.00578125" />
              <mxPoint x="573.33" y="-160.00578125" />
            </Array>
          </mxGeometry>
        </mxCell>
        <mxCell id="jhRFJCUqM1kgl0zMGDGb-11" value="AtoF , GtoZ" style="edgeLabel;html=1;align=center;verticalAlign=middle;resizable=0;points=[];" vertex="1" connectable="0" parent="jhRFJCUqM1kgl0zMGDGb-10">
          <mxGeometry x="-0.14" relative="1" as="geometry">
            <mxPoint as="offset" />
          </mxGeometry>
        </mxCell>
        <mxCell id="jhRFJCUqM1kgl0zMGDGb-6" value="under2" style="ellipse;whiteSpace=wrap;html=1;aspect=fixed;" vertex="1" parent="1">
          <mxGeometry x="405.33" y="-200.00578125" width="80" height="80" as="geometry" />
        </mxCell>
        <mxCell id="jhRFJCUqM1kgl0zMGDGb-9" value="sysFunc" style="ellipse;whiteSpace=wrap;html=1;aspect=fixed;shape=doubleEllipse;" vertex="1" parent="1">
          <mxGeometry x="585.33" y="-200.00578125" width="80" height="80" as="geometry" />
        </mxCell>
        <mxCell id="jhRFJCUqM1kgl0zMGDGb-12" style="edgeStyle=orthogonalEdgeStyle;rounded=0;orthogonalLoop=1;jettySize=auto;html=1;exitX=0.075;exitY=0.23;exitDx=0;exitDy=0;entryX=1;entryY=0.5;entryDx=0;entryDy=0;exitPerimeter=0;" edge="1" parent="1" source="jhRFJCUqM1kgl0zMGDGb-9" target="jhRFJCUqM1kgl0zMGDGb-9">
          <mxGeometry relative="1" as="geometry" />
        </mxCell>
        <mxCell id="jhRFJCUqM1kgl0zMGDGb-31" value="AtoF , GtoZ" style="edgeLabel;html=1;align=center;verticalAlign=middle;resizable=0;points=[];" vertex="1" connectable="0" parent="jhRFJCUqM1kgl0zMGDGb-12">
          <mxGeometry x="0.0561" y="-2" relative="1" as="geometry">
            <mxPoint x="-27" as="offset" />
          </mxGeometry>
        </mxCell>
        <mxCell id="jhRFJCUqM1kgl0zMGDGb-20" value="" style="edgeStyle=orthogonalEdgeStyle;rounded=0;orthogonalLoop=1;jettySize=auto;html=1;noEdgeStyle=1;orthogonal=1;" edge="1" parent="1" source="jhRFJCUqM1kgl0zMGDGb-14" target="jhRFJCUqM1kgl0zMGDGb-19">
          <mxGeometry relative="1" as="geometry">
            <Array as="points">
              <mxPoint x="317.33" y="-51.08000000000001" />
              <mxPoint x="393.33" y="-50.00578125000001" />
            </Array>
          </mxGeometry>
        </mxCell>
        <mxCell id="jhRFJCUqM1kgl0zMGDGb-21" value="Point" style="edgeLabel;html=1;align=center;verticalAlign=middle;resizable=0;points=[];" vertex="1" connectable="0" parent="jhRFJCUqM1kgl0zMGDGb-20">
          <mxGeometry x="-0.3252" y="-2" relative="1" as="geometry">
            <mxPoint x="13" y="-2" as="offset" />
          </mxGeometry>
        </mxCell>
        <mxCell id="jhRFJCUqM1kgl0zMGDGb-14" value="int" style="ellipse;whiteSpace=wrap;html=1;aspect=fixed;shape=doubleEllipse;" vertex="1" parent="1">
          <mxGeometry x="225.33" y="-91.08000000000001" width="80" height="80" as="geometry" />
        </mxCell>
        <mxCell id="jhRFJCUqM1kgl0zMGDGb-17" style="edgeStyle=orthogonalEdgeStyle;rounded=0;orthogonalLoop=1;jettySize=auto;html=1;entryX=1;entryY=0.375;entryDx=0;entryDy=0;entryPerimeter=0;" edge="1" parent="1" source="jhRFJCUqM1kgl0zMGDGb-14" target="jhRFJCUqM1kgl0zMGDGb-14">
          <mxGeometry relative="1" as="geometry" />
        </mxCell>
        <mxCell id="jhRFJCUqM1kgl0zMGDGb-18" value="Digit" style="edgeLabel;html=1;align=center;verticalAlign=middle;resizable=0;points=[];" vertex="1" connectable="0" parent="jhRFJCUqM1kgl0zMGDGb-17">
          <mxGeometry x="-0.4483" relative="1" as="geometry">
            <mxPoint as="offset" />
          </mxGeometry>
        </mxCell>
        <mxCell id="jhRFJCUqM1kgl0zMGDGb-25" value="" style="edgeStyle=orthogonalEdgeStyle;rounded=0;orthogonalLoop=1;jettySize=auto;html=1;noEdgeStyle=1;orthogonal=1;" edge="1" parent="1" source="jhRFJCUqM1kgl0zMGDGb-19" target="jhRFJCUqM1kgl0zMGDGb-24">
          <mxGeometry relative="1" as="geometry">
            <Array as="points">
              <mxPoint x="497.33" y="-50.00578125000001" />
              <mxPoint x="573.33" y="-50.00578125000001" />
            </Array>
          </mxGeometry>
        </mxCell>
        <mxCell id="jhRFJCUqM1kgl0zMGDGb-28" value="Digit" style="edgeLabel;html=1;align=center;verticalAlign=middle;resizable=0;points=[];" vertex="1" connectable="0" parent="jhRFJCUqM1kgl0zMGDGb-25">
          <mxGeometry x="-0.231" y="2" relative="1" as="geometry">
            <mxPoint as="offset" />
          </mxGeometry>
        </mxCell>
        <mxCell id="jhRFJCUqM1kgl0zMGDGb-19" value="intPoint" style="ellipse;whiteSpace=wrap;html=1;aspect=fixed;shape=ellipse;" vertex="1" parent="1">
          <mxGeometry x="405.33" y="-90.00578125000001" width="80" height="80" as="geometry" />
        </mxCell>
        <mxCell id="jhRFJCUqM1kgl0zMGDGb-24" value="float" style="ellipse;whiteSpace=wrap;html=1;aspect=fixed;shape=doubleEllipse;" vertex="1" parent="1">
          <mxGeometry x="585.33" y="-90.00578125000001" width="80" height="80" as="geometry" />
        </mxCell>
        <mxCell id="jhRFJCUqM1kgl0zMGDGb-29" style="edgeStyle=orthogonalEdgeStyle;rounded=0;orthogonalLoop=1;jettySize=auto;html=1;exitX=0.5;exitY=0;exitDx=0;exitDy=0;entryX=1;entryY=0.5;entryDx=0;entryDy=0;" edge="1" parent="1" source="jhRFJCUqM1kgl0zMGDGb-24" target="jhRFJCUqM1kgl0zMGDGb-24">
          <mxGeometry relative="1" as="geometry" />
        </mxCell>
        <mxCell id="jhRFJCUqM1kgl0zMGDGb-30" value="Digit" style="edgeLabel;html=1;align=center;verticalAlign=middle;resizable=0;points=[];" vertex="1" connectable="0" parent="jhRFJCUqM1kgl0zMGDGb-29">
          <mxGeometry x="-0.1387" y="2" relative="1" as="geometry">
            <mxPoint as="offset" />
          </mxGeometry>
        </mxCell>
        <mxCell id="jhRFJCUqM1kgl0zMGDGb-38" value="" style="rounded=0;orthogonalLoop=1;jettySize=auto;html=1;orthogonal=1;" edge="1" parent="1" source="jhRFJCUqM1kgl0zMGDGb-34" target="jhRFJCUqM1kgl0zMGDGb-37">
          <mxGeometry relative="1" as="geometry" />
        </mxCell>
        <mxCell id="jhRFJCUqM1kgl0zMGDGb-39" value="pound" style="edgeLabel;html=1;align=center;verticalAlign=middle;resizable=0;points=[];" vertex="1" connectable="0" parent="jhRFJCUqM1kgl0zMGDGb-38">
          <mxGeometry x="-0.2374" y="-1" relative="1" as="geometry">
            <mxPoint as="offset" />
          </mxGeometry>
        </mxCell>
        <mxCell id="jhRFJCUqM1kgl0zMGDGb-34" value="pound" style="ellipse;whiteSpace=wrap;html=1;aspect=fixed;" vertex="1" parent="1">
          <mxGeometry x="225.33" y="18.919999999999987" width="80" height="80" as="geometry" />
        </mxCell>
        <mxCell id="jhRFJCUqM1kgl0zMGDGb-37" value="hex1" style="ellipse;whiteSpace=wrap;html=1;aspect=fixed;" vertex="1" parent="1">
          <mxGeometry x="374" y="18.92244572428403" width="80" height="80" as="geometry" />
        </mxCell>
        <mxCell id="jhRFJCUqM1kgl0zMGDGb-42" value="" style="rounded=0;orthogonalLoop=1;jettySize=auto;html=1;orthogonal=1;" edge="1" parent="1" target="jhRFJCUqM1kgl0zMGDGb-44" source="jhRFJCUqM1kgl0zMGDGb-37">
          <mxGeometry relative="1" as="geometry">
            <mxPoint x="635.33" y="168.92" as="sourcePoint" />
          </mxGeometry>
        </mxCell>
        <mxCell id="jhRFJCUqM1kgl0zMGDGb-43" value="Digit, AtoF" style="edgeLabel;html=1;align=center;verticalAlign=middle;resizable=0;points=[];" vertex="1" connectable="0" parent="jhRFJCUqM1kgl0zMGDGb-42">
          <mxGeometry x="-0.2374" y="-1" relative="1" as="geometry">
            <mxPoint as="offset" />
          </mxGeometry>
        </mxCell>
        <mxCell id="jhRFJCUqM1kgl0zMGDGb-46" value="" style="rounded=0;orthogonalLoop=1;jettySize=auto;html=1;orthogonal=1;" edge="1" parent="1" source="jhRFJCUqM1kgl0zMGDGb-44" target="jhRFJCUqM1kgl0zMGDGb-45">
          <mxGeometry relative="1" as="geometry" />
        </mxCell>
        <mxCell id="jhRFJCUqM1kgl0zMGDGb-54" value="Digit, AtoF" style="edgeLabel;html=1;align=center;verticalAlign=middle;resizable=0;points=[];" vertex="1" connectable="0" parent="jhRFJCUqM1kgl0zMGDGb-46">
          <mxGeometry x="-0.1486" relative="1" as="geometry">
            <mxPoint as="offset" />
          </mxGeometry>
        </mxCell>
        <mxCell id="jhRFJCUqM1kgl0zMGDGb-44" value="hex2" style="ellipse;whiteSpace=wrap;html=1;aspect=fixed;" vertex="1" parent="1">
          <mxGeometry x="523.7" y="18.918552810755052" width="80" height="80" as="geometry" />
        </mxCell>
        <mxCell id="jhRFJCUqM1kgl0zMGDGb-48" value="" style="rounded=0;orthogonalLoop=1;jettySize=auto;html=1;orthogonal=1;" edge="1" parent="1" source="jhRFJCUqM1kgl0zMGDGb-45" target="jhRFJCUqM1kgl0zMGDGb-47">
          <mxGeometry relative="1" as="geometry" />
        </mxCell>
        <mxCell id="jhRFJCUqM1kgl0zMGDGb-55" value="Digit, AtoF" style="edgeLabel;html=1;align=center;verticalAlign=middle;resizable=0;points=[];" vertex="1" connectable="0" parent="jhRFJCUqM1kgl0zMGDGb-48">
          <mxGeometry x="-0.1285" relative="1" as="geometry">
            <mxPoint as="offset" />
          </mxGeometry>
        </mxCell>
        <mxCell id="jhRFJCUqM1kgl0zMGDGb-45" value="hex3" style="ellipse;whiteSpace=wrap;html=1;aspect=fixed;" vertex="1" parent="1">
          <mxGeometry x="690" y="18.92465989722607" width="80" height="80" as="geometry" />
        </mxCell>
        <mxCell id="jhRFJCUqM1kgl0zMGDGb-50" value="" style="rounded=0;orthogonalLoop=1;jettySize=auto;html=1;orthogonal=1;" edge="1" parent="1" source="jhRFJCUqM1kgl0zMGDGb-47" target="jhRFJCUqM1kgl0zMGDGb-49">
          <mxGeometry relative="1" as="geometry" />
        </mxCell>
        <mxCell id="jhRFJCUqM1kgl0zMGDGb-56" value="Digit, AtoF" style="edgeLabel;html=1;align=center;verticalAlign=middle;resizable=0;points=[];" vertex="1" connectable="0" parent="jhRFJCUqM1kgl0zMGDGb-50">
          <mxGeometry x="-0.2319" y="-1" relative="1" as="geometry">
            <mxPoint as="offset" />
          </mxGeometry>
        </mxCell>
        <mxCell id="jhRFJCUqM1kgl0zMGDGb-47" value="hex4" style="ellipse;whiteSpace=wrap;html=1;aspect=fixed;" vertex="1" parent="1">
          <mxGeometry x="700" y="140.00442834588407" width="80" height="80" as="geometry" />
        </mxCell>
        <mxCell id="jhRFJCUqM1kgl0zMGDGb-52" value="" style="rounded=0;orthogonalLoop=1;jettySize=auto;html=1;orthogonal=1;" edge="1" parent="1" source="jhRFJCUqM1kgl0zMGDGb-49" target="jhRFJCUqM1kgl0zMGDGb-51">
          <mxGeometry relative="1" as="geometry" />
        </mxCell>
        <mxCell id="jhRFJCUqM1kgl0zMGDGb-57" value="Digit, AtoF" style="edgeLabel;html=1;align=center;verticalAlign=middle;resizable=0;points=[];" vertex="1" connectable="0" parent="jhRFJCUqM1kgl0zMGDGb-52">
          <mxGeometry x="-0.2816" y="1" relative="1" as="geometry">
            <mxPoint as="offset" />
          </mxGeometry>
        </mxCell>
        <mxCell id="jhRFJCUqM1kgl0zMGDGb-49" value="hex5" style="ellipse;whiteSpace=wrap;html=1;aspect=fixed;" vertex="1" parent="1">
          <mxGeometry x="700" y="249.99637129228648" width="80" height="80" as="geometry" />
        </mxCell>
        <mxCell id="jhRFJCUqM1kgl0zMGDGb-51" value="colour" style="ellipse;whiteSpace=wrap;html=1;aspect=fixed;shape=doubleEllipse;" vertex="1" parent="1">
          <mxGeometry x="699.9999999999999" y="359.99831423868886" width="80" height="80" as="geometry" />
        </mxCell>
        <mxCell id="jhRFJCUqM1kgl0zMGDGb-59" value="word" style="ellipse;whiteSpace=wrap;html=1;aspect=fixed;shape=doubleEllipse;" vertex="1" parent="1">
          <mxGeometry x="260" y="146.35" width="80" height="80" as="geometry" />
        </mxCell>
        <mxCell id="jhRFJCUqM1kgl0zMGDGb-62" style="edgeStyle=orthogonalEdgeStyle;rounded=0;orthogonalLoop=1;jettySize=auto;html=1;exitX=0.051;exitY=0.304;exitDx=0;exitDy=0;entryX=1;entryY=0.5;entryDx=0;entryDy=0;exitPerimeter=0;" edge="1" parent="1" source="jhRFJCUqM1kgl0zMGDGb-59" target="jhRFJCUqM1kgl0zMGDGb-59">
          <mxGeometry relative="1" as="geometry" />
        </mxCell>
        <mxCell id="jhRFJCUqM1kgl0zMGDGb-63" value="AtoF, GtoZ, Underscore, Digit" style="edgeLabel;html=1;align=center;verticalAlign=middle;resizable=0;points=[];" vertex="1" connectable="0" parent="jhRFJCUqM1kgl0zMGDGb-62">
          <mxGeometry x="0.1652" y="2" relative="1" as="geometry">
            <mxPoint x="-23" as="offset" />
          </mxGeometry>
        </mxCell>
        <mxCell id="jhRFJCUqM1kgl0zMGDGb-64" value="mulOp.Mul" style="ellipse;whiteSpace=wrap;html=1;aspect=fixed;shape=doubleEllipse;" vertex="1" parent="1">
          <mxGeometry x="523.7" y="163.72" width="80" height="80" as="geometry" />
        </mxCell>
        <mxCell id="jhRFJCUqM1kgl0zMGDGb-67" value="mulOp.Div" style="ellipse;whiteSpace=wrap;html=1;aspect=fixed;shape=doubleEllipse;" vertex="1" parent="1">
          <mxGeometry x="483.70000000000005" y="273.72" width="80" height="80" as="geometry" />
        </mxCell>
        <mxCell id="jhRFJCUqM1kgl0zMGDGb-70" value="addOp.Add" style="ellipse;whiteSpace=wrap;html=1;aspect=fixed;shape=doubleEllipse;" vertex="1" parent="1">
          <mxGeometry x="483.70000000000005" y="383.72" width="80" height="80" as="geometry" />
        </mxCell>
        <mxCell id="jhRFJCUqM1kgl0zMGDGb-72" value="addOp.Sub" style="ellipse;whiteSpace=wrap;html=1;aspect=fixed;shape=doubleEllipse;" vertex="1" parent="1">
          <mxGeometry x="483.70000000000005" y="493.72" width="80" height="80" as="geometry" />
        </mxCell>
        <mxCell id="jhRFJCUqM1kgl0zMGDGb-99" value="" style="edgeStyle=orthogonalEdgeStyle;rounded=0;orthogonalLoop=1;jettySize=auto;html=1;" edge="1" parent="1" source="jhRFJCUqM1kgl0zMGDGb-76" target="jhRFJCUqM1kgl0zMGDGb-98">
          <mxGeometry relative="1" as="geometry" />
        </mxCell>
        <mxCell id="jhRFJCUqM1kgl0zMGDGb-100" value="Equals" style="edgeLabel;html=1;align=center;verticalAlign=middle;resizable=0;points=[];" vertex="1" connectable="0" parent="jhRFJCUqM1kgl0zMGDGb-99">
          <mxGeometry x="0.2787" y="2" relative="1" as="geometry">
            <mxPoint x="-9" y="2" as="offset" />
          </mxGeometry>
        </mxCell>
        <mxCell id="jhRFJCUqM1kgl0zMGDGb-76" value="relop.GT" style="ellipse;whiteSpace=wrap;html=1;aspect=fixed;shape=doubleEllipse;" vertex="1" parent="1">
          <mxGeometry x="225.33" y="550" width="80" height="80" as="geometry" />
        </mxCell>
        <mxCell id="jhRFJCUqM1kgl0zMGDGb-96" value="" style="edgeStyle=orthogonalEdgeStyle;rounded=0;orthogonalLoop=1;jettySize=auto;html=1;" edge="1" parent="1" source="jhRFJCUqM1kgl0zMGDGb-79" target="jhRFJCUqM1kgl0zMGDGb-95">
          <mxGeometry relative="1" as="geometry" />
        </mxCell>
        <mxCell id="jhRFJCUqM1kgl0zMGDGb-102" value="Equals" style="edgeLabel;html=1;align=center;verticalAlign=middle;resizable=0;points=[];" vertex="1" connectable="0" parent="jhRFJCUqM1kgl0zMGDGb-96">
          <mxGeometry x="-0.2213" y="1" relative="1" as="geometry">
            <mxPoint as="offset" />
          </mxGeometry>
        </mxCell>
        <mxCell id="jhRFJCUqM1kgl0zMGDGb-79" value="relop.LT" style="ellipse;whiteSpace=wrap;html=1;aspect=fixed;shape=doubleEllipse;" vertex="1" parent="1">
          <mxGeometry x="225.32999999999998" y="660" width="80" height="80" as="geometry" />
        </mxCell>
        <mxCell id="jhRFJCUqM1kgl0zMGDGb-87" value="" style="edgeStyle=orthogonalEdgeStyle;rounded=0;orthogonalLoop=1;jettySize=auto;html=1;" edge="1" parent="1" source="jhRFJCUqM1kgl0zMGDGb-82" target="jhRFJCUqM1kgl0zMGDGb-86">
          <mxGeometry relative="1" as="geometry" />
        </mxCell>
        <mxCell id="jhRFJCUqM1kgl0zMGDGb-88" value="Equals" style="edgeLabel;html=1;align=center;verticalAlign=middle;resizable=0;points=[];" vertex="1" connectable="0" parent="jhRFJCUqM1kgl0zMGDGb-87">
          <mxGeometry x="-0.2898" y="1" relative="1" as="geometry">
            <mxPoint as="offset" />
          </mxGeometry>
        </mxCell>
        <mxCell id="jhRFJCUqM1kgl0zMGDGb-82" value="eqauls" style="ellipse;whiteSpace=wrap;html=1;aspect=fixed;shape=doubleEllipse;" vertex="1" parent="1">
          <mxGeometry x="225.33000000000004" y="770" width="80" height="80" as="geometry" />
        </mxCell>
        <mxCell id="jhRFJCUqM1kgl0zMGDGb-86" value="relop.EQ" style="ellipse;whiteSpace=wrap;html=1;aspect=fixed;shape=doubleEllipse;" vertex="1" parent="1">
          <mxGeometry x="374" y="770" width="80" height="80" as="geometry" />
        </mxCell>
        <mxCell id="jhRFJCUqM1kgl0zMGDGb-94" value="" style="edgeStyle=orthogonalEdgeStyle;rounded=0;orthogonalLoop=1;jettySize=auto;html=1;" edge="1" parent="1" source="jhRFJCUqM1kgl0zMGDGb-89" target="jhRFJCUqM1kgl0zMGDGb-93">
          <mxGeometry relative="1" as="geometry" />
        </mxCell>
        <mxCell id="jhRFJCUqM1kgl0zMGDGb-97" value="Equals" style="edgeLabel;html=1;align=center;verticalAlign=middle;resizable=0;points=[];" vertex="1" connectable="0" parent="jhRFJCUqM1kgl0zMGDGb-94">
          <mxGeometry x="-0.2236" y="-4" relative="1" as="geometry">
            <mxPoint as="offset" />
          </mxGeometry>
        </mxCell>
        <mxCell id="jhRFJCUqM1kgl0zMGDGb-89" value="exclamation" style="ellipse;whiteSpace=wrap;html=1;aspect=fixed;shape=doubleEllipse;" vertex="1" parent="1">
          <mxGeometry x="200.00000000000006" y="900" width="80" height="80" as="geometry" />
        </mxCell>
        <mxCell id="jhRFJCUqM1kgl0zMGDGb-93" value="relop.NE" style="ellipse;whiteSpace=wrap;html=1;aspect=fixed;shape=doubleEllipse;" vertex="1" parent="1">
          <mxGeometry x="380" y="900" width="80" height="80" as="geometry" />
        </mxCell>
        <mxCell id="jhRFJCUqM1kgl0zMGDGb-95" value="relop.LTE" style="ellipse;whiteSpace=wrap;html=1;aspect=fixed;shape=doubleEllipse;" vertex="1" parent="1">
          <mxGeometry x="374" y="660" width="80" height="80" as="geometry" />
        </mxCell>
        <mxCell id="jhRFJCUqM1kgl0zMGDGb-98" value="relop.GTE" style="ellipse;whiteSpace=wrap;html=1;aspect=fixed;shape=doubleEllipse;" vertex="1" parent="1">
          <mxGeometry x="374" y="550" width="80" height="80" as="geometry" />
        </mxCell>
      </root>
    </mxGraphModel>
  </diagram>
</mxfile>
